<svg version="1.1" id="Layer_1" xmlns="http://www.w3.org/2000/svg" xmlns:xlink="http://www.w3.org/1999/xlink" x="0px" y="0px"
	 width="100%" viewBox="0 0 612 612" enable-background="new 0 0 612 612" xml:space="preserve">
<path fill="#010101" opacity="1.000000" stroke="none" 
	d="
M410.000000,613.000000 
	C273.333344,613.000000 137.166718,613.000000 1.000055,613.000000 
	C1.000036,409.000061 1.000036,205.000122 1.000018,1.000137 
	C204.999893,1.000091 408.999786,1.000091 612.999756,1.000046 
	C612.999878,204.999863 612.999878,408.999725 612.999939,612.999756 
	C545.500000,613.000000 478.000000,613.000000 410.000000,613.000000 
M390.734985,459.816132 
	C387.501465,460.560333 384.267914,461.304535 380.359955,462.078156 
	C379.925842,462.192200 379.491730,462.306213 378.632202,462.363434 
	C378.345428,462.471008 378.147339,462.667877 377.357422,463.176727 
	C372.000092,466.924255 370.024567,473.084137 366.893829,478.354523 
	C366.033020,479.803711 366.445831,483.042145 367.554199,484.456573 
	C373.597931,492.169617 379.158722,501.006256 391.126831,499.713959 
	C395.342682,501.950684 398.567657,504.900269 399.735687,509.858856 
	C400.834839,514.525146 402.335480,519.104736 403.847382,523.660095 
	C404.198853,524.719055 405.312317,525.525085 406.075195,526.447449 
	C406.495880,526.159790 406.916534,525.872070 407.337219,525.584412 
	C404.531677,514.976257 401.726135,504.368164 398.927368,492.844940 
	C398.989777,492.238403 399.052185,491.631897 399.535919,490.633209 
	C399.652069,490.085449 399.768219,489.537689 400.015564,488.350861 
	C400.026978,487.916412 400.038391,487.481995 400.533112,486.550262 
	C400.554474,484.690399 400.575806,482.830566 400.872345,480.181549 
	C398.303741,473.469910 395.749725,466.752472 393.084778,460.079285 
	C393.016113,459.907379 391.732330,460.220734 390.734985,459.816132 
M382.842346,209.607864 
	C382.569153,209.661758 382.295929,209.715652 381.567169,210.028671 
	C381.395142,210.058914 381.223083,210.089157 381.065338,209.969925 
	C381.065338,209.969925 381.131042,209.834915 381.154694,208.792496 
	C380.813477,190.634872 380.597473,172.473770 380.089905,154.320786 
	C379.709534,140.718903 372.314301,132.708725 358.733154,131.193939 
	C352.126404,130.457077 345.418427,129.922485 338.792908,130.193344 
	C320.158905,130.955048 301.923981,129.335449 284.088806,123.510590 
	C279.564514,122.032990 274.631256,121.596573 269.842712,121.186470 
	C261.869568,120.503647 255.708099,123.514587 253.044174,131.449356 
	C246.388107,151.275223 239.939514,171.170731 233.483444,191.012375 
	C233.483444,191.012375 233.546036,190.963959 232.540466,190.986862 
	C227.379333,191.004440 222.100159,190.335220 217.084167,191.197281 
	C209.156998,192.559677 200.859497,193.796021 193.714355,197.184875 
	C183.994110,201.795090 183.474930,210.687393 191.742767,217.598740 
	C196.033310,221.185318 200.904419,224.357788 205.994293,226.648453 
	C216.086426,231.190414 226.512115,234.991241 236.883575,239.131790 
	C236.453430,252.581100 237.456787,257.522980 241.391037,261.517975 
	C242.212509,254.747086 243.049179,247.850952 243.937149,240.532059 
	C282.956512,251.611282 321.742432,256.765228 361.172699,258.288147 
	C361.521332,259.604370 361.843872,260.821960 362.453400,263.123047 
	C363.841461,257.637726 367.441925,258.390564 370.894775,257.978546 
	C383.067993,256.525818 395.406738,255.545639 407.252136,252.634369 
	C413.470154,251.106125 419.495911,246.694901 424.336670,242.212173 
	C429.985840,236.980850 429.166534,231.377090 423.258301,226.361679 
	C420.379791,223.918152 417.095764,221.606033 413.597198,220.304840 
	C403.505005,216.551285 393.210480,213.341797 382.842346,209.607864 
M330.738831,419.180023 
	C341.852905,399.447845 352.477997,379.471222 357.388794,357.120300 
	C358.593719,351.636230 358.394775,345.843689 358.841248,340.192963 
	C358.352905,340.152985 357.864532,340.113007 357.376190,340.073029 
	C350.130707,362.289368 335.784882,377.493073 312.984772,384.466278 
	C318.202911,397.108521 323.294403,409.443970 328.617218,422.339874 
	C329.456055,421.094269 329.900696,420.433960 330.738831,419.180023 
M250.399017,372.154907 
	C258.043365,388.856232 265.687714,405.557587 273.332062,422.258911 
	C273.958710,422.138855 274.585358,422.018829 275.212006,421.898773 
	C280.297546,409.545288 285.383087,397.191833 290.612244,384.489502 
	C267.911865,377.483337 253.521881,362.373047 245.848679,340.348541 
	C243.723312,351.337646 246.963959,361.372192 250.399017,372.154907 
M247.407288,512.144409 
	C250.320404,517.836609 253.233521,523.528870 256.768158,530.435547 
	C261.089783,521.470764 264.744995,513.888428 268.400208,506.306122 
	C268.882538,506.412689 269.364868,506.519257 269.847198,506.625824 
	C270.460419,513.976562 271.073639,521.327271 271.706757,528.916504 
	C274.803436,528.916504 278.087830,528.916504 281.963898,528.916504 
	C273.560455,525.345215 276.066101,517.925964 275.063477,512.022827 
	C273.968964,505.578613 273.611237,499.009247 272.932373,492.494446 
	C272.480316,492.380768 272.028290,492.267090 271.576233,492.153412 
	C266.993958,501.750549 262.411682,511.347656 257.678192,521.261536 
	C252.612762,511.201538 247.799622,501.642548 242.986481,492.083557 
	C241.557861,493.688812 241.230331,494.931274 241.086472,496.194672 
	C240.051056,505.288727 239.138824,514.398071 237.972656,523.474976 
	C237.730316,525.361206 236.590500,527.132080 235.891068,528.888916 
	C238.414444,528.888916 241.502197,528.888916 244.954025,528.888916 
	C241.200562,525.984558 241.089371,513.931030 244.592407,506.384766 
	C245.505951,508.261353 246.282684,509.856903 247.407288,512.144409 
M292.362732,517.835754 
	C297.888275,513.644836 300.567596,515.370544 305.159363,526.030762 
	C307.606476,526.030762 310.020477,526.030762 311.962341,526.030762 
	C304.428406,518.568054 303.583008,507.406647 297.484039,498.777252 
	C291.867950,507.563324 290.714508,518.292297 283.962006,525.908325 
	C285.607758,525.908325 288.000763,525.908325 289.690399,525.908325 
	C290.562744,523.200317 291.301758,520.906128 292.362732,517.835754 
M379.058075,525.662903 
	C377.491760,523.866272 375.468262,522.295410 374.447540,520.229248 
	C371.734924,514.738464 369.490875,509.017731 366.979034,503.425049 
	C366.297485,501.907623 365.326691,500.520111 364.095398,498.393829 
	C359.758026,508.315002 355.856201,517.239990 352.080322,525.876770 
	C353.365204,525.876770 355.895752,525.876770 358.627777,525.876770 
	C356.944366,523.078918 358.214142,517.193237 360.677368,516.467834 
	C362.511871,515.927551 365.581543,515.449402 366.411407,516.407349 
	C368.861572,519.235718 370.472504,522.791138 372.615143,526.405090 
	C374.342377,526.321289 376.483917,526.217346 379.058075,525.662903 
M314.007660,325.548004 
	C303.875366,324.073364 293.713348,323.688171 283.942413,327.136810 
	C280.213989,328.452698 277.032990,331.319733 273.602539,333.479889 
	C273.875610,333.888794 274.148682,334.297729 274.421753,334.706635 
	C292.619720,326.262482 310.825012,326.431915 328.980743,334.533325 
	C326.848419,329.720001 323.518646,327.627533 314.007660,325.548004 
M327.193939,501.888184 
	C329.105865,502.540588 331.017792,503.192993 333.327484,503.981140 
	C333.522919,502.786102 333.772736,501.258423 334.027252,499.702026 
	C327.934692,499.702026 322.376312,499.702026 316.502960,499.702026 
	C319.634735,502.667847 320.027191,522.241638 317.257141,526.148804 
	C319.871399,526.148804 322.395142,526.148804 325.026031,526.148804 
	C322.693726,520.514038 323.186829,514.649902 326.069244,512.112000 
	C322.527008,509.028046 322.659698,503.588562 327.193939,501.888184 
M338.940338,507.791321 
	C338.279785,514.021667 340.516998,520.508179 337.313110,526.320618 
	C340.164307,526.320618 343.020691,526.320618 346.388947,526.320618 
	C342.658478,523.388245 341.952057,504.544067 344.838867,500.197815 
	C342.175110,500.197815 339.470398,500.197815 337.800140,500.197815 
	C338.204529,502.565765 338.572571,504.720825 338.940338,507.791321 
z"/>
<path fill="#FDFDFD" opacity="1.000000" stroke="none" 
	d="
M233.407669,191.038300 
	C239.939514,171.170731 246.388107,151.275223 253.044174,131.449356 
	C255.708099,123.514587 261.869568,120.503647 269.842712,121.186470 
	C274.631256,121.596573 279.564514,122.032990 284.088806,123.510590 
	C301.923981,129.335449 320.158905,130.955048 338.792908,130.193344 
	C345.418427,129.922485 352.126404,130.457077 358.733154,131.193939 
	C372.314301,132.708725 379.709534,140.718903 380.089905,154.320786 
	C380.597473,172.473770 380.813477,190.634872 380.840210,209.022156 
	C371.661926,206.501587 362.941986,203.095352 353.909515,201.114380 
	C314.214935,192.408768 273.858368,191.030746 233.407669,191.038300 
z"/>
<path fill="#FCFCFC" opacity="1.000000" stroke="none" 
	d="
M381.051025,210.119400 
	C381.223083,210.089157 381.395142,210.058914 382.022522,210.038284 
	C382.650421,210.004807 382.822937,209.961716 382.995422,209.918625 
	C393.210480,213.341797 403.505005,216.551285 413.597198,220.304840 
	C417.095764,221.606033 420.379791,223.918152 423.258301,226.361679 
	C429.166534,231.377090 429.985840,236.980850 424.336670,242.212173 
	C419.495911,246.694901 413.470154,251.106125 407.252136,252.634369 
	C395.406738,255.545639 383.067993,256.525818 370.894775,257.978546 
	C367.441925,258.390564 363.841461,257.637726 362.453400,263.123047 
	C361.843872,260.821960 361.521332,259.604370 361.172699,258.288147 
	C321.742432,256.765228 282.956512,251.611282 243.937149,240.532059 
	C243.049179,247.850952 242.212509,254.747086 241.391037,261.517975 
	C237.456787,257.522980 236.453430,252.581100 236.883575,239.131790 
	C226.512115,234.991241 216.086426,231.190414 205.994293,226.648453 
	C200.904419,224.357788 196.033310,221.185318 191.742767,217.598740 
	C183.474930,210.687393 183.994110,201.795090 193.714355,197.184875 
	C200.859497,193.796021 209.156998,192.559677 217.084167,191.197281 
	C222.100159,190.335220 227.379333,191.004440 232.889648,191.360809 
	C231.490952,198.754791 229.743088,205.774857 227.909119,213.140762 
	C279.524200,218.290207 330.869019,221.657745 381.051025,231.560516 
	C381.051025,224.357574 381.051025,217.238495 381.051025,210.119400 
z"/>
<path fill="#050505" opacity="1.000000" stroke="none" 
	d="
M381.058167,210.044662 
	C381.051025,217.238495 381.051025,224.357574 381.051025,231.560516 
	C330.869019,221.657745 279.524200,218.290207 227.909119,213.140762 
	C229.743088,205.774857 231.490952,198.754791 233.392426,191.349350 
	C233.546036,190.963959 233.483444,191.012375 233.445557,191.025330 
	C273.858368,191.030746 314.214935,192.408768 353.909515,201.114380 
	C362.941986,203.095352 371.661926,206.501587 380.828369,209.543365 
	C381.131042,209.834915 381.065338,209.969925 381.058167,210.044662 
z"/>
<path fill="#F7F7F7" opacity="1.000000" stroke="none" 
	d="
M330.542114,419.476868 
	C329.900696,420.433960 329.456055,421.094269 328.617218,422.339874 
	C323.294403,409.443970 318.202911,397.108521 312.984772,384.466278 
	C335.784882,377.493073 350.130707,362.289368 357.376190,340.073029 
	C357.864532,340.113007 358.352905,340.152985 358.841248,340.192963 
	C358.394775,345.843689 358.593719,351.636230 357.388794,357.120300 
	C352.477997,379.471222 341.852905,399.447845 330.542114,419.476868 
z"/>
<path fill="#F7F7F7" opacity="1.000000" stroke="none" 
	d="
M250.260864,371.786560 
	C246.963959,361.372192 243.723312,351.337646 245.848679,340.348541 
	C253.521881,362.373047 267.911865,377.483337 290.612244,384.489502 
	C285.383087,397.191833 280.297546,409.545288 275.212006,421.898773 
	C274.585358,422.018829 273.958710,422.138855 273.332062,422.258911 
	C265.687714,405.557587 258.043365,388.856232 250.260864,371.786560 
z"/>
<path fill="#EAEAEA" opacity="1.000000" stroke="none" 
	d="
M247.233337,511.798401 
	C246.282684,509.856903 245.505951,508.261353 244.592407,506.384766 
	C241.089371,513.931030 241.200562,525.984558 244.954025,528.888916 
	C241.502197,528.888916 238.414444,528.888916 235.891068,528.888916 
	C236.590500,527.132080 237.730316,525.361206 237.972656,523.474976 
	C239.138824,514.398071 240.051056,505.288727 241.086472,496.194672 
	C241.230331,494.931274 241.557861,493.688812 242.986481,492.083557 
	C247.799622,501.642548 252.612762,511.201538 257.678192,521.261536 
	C262.411682,511.347656 266.993958,501.750549 271.576233,492.153412 
	C272.028290,492.267090 272.480316,492.380768 272.932373,492.494446 
	C273.611237,499.009247 273.968964,505.578613 275.063477,512.022827 
	C276.066101,517.925964 273.560455,525.345215 281.963898,528.916504 
	C278.087830,528.916504 274.803436,528.916504 271.706757,528.916504 
	C271.073639,521.327271 270.460419,513.976562 269.847198,506.625824 
	C269.364868,506.519257 268.882538,506.412689 268.400208,506.306122 
	C264.744995,513.888428 261.089783,521.470764 256.768158,530.435547 
	C253.233521,523.528870 250.320404,517.836609 247.233337,511.798401 
z"/>
<path fill="#EAEAEA" opacity="1.000000" stroke="none" 
	d="
M292.201782,518.223877 
	C291.301758,520.906128 290.562744,523.200317 289.690399,525.908325 
	C288.000763,525.908325 285.607758,525.908325 283.962006,525.908325 
	C290.714508,518.292297 291.867950,507.563324 297.484039,498.777252 
	C303.583008,507.406647 304.428406,518.568054 311.962341,526.030762 
	C310.020477,526.030762 307.606476,526.030762 305.159363,526.030762 
	C300.567596,515.370544 297.888275,513.644836 292.201782,518.223877 
M296.884827,514.037415 
	C297.692566,513.975098 298.500305,513.912781 299.750793,513.816284 
	C298.865295,511.381073 298.083191,509.230225 296.933868,506.069489 
	C295.807495,509.052887 295.055328,510.723480 294.612671,512.472412 
	C294.517273,512.849548 295.537720,513.508972 296.884827,514.037415 
z"/>
<path fill="#EAEAEA" opacity="1.000000" stroke="none" 
	d="
M378.841766,525.888184 
	C376.483917,526.217346 374.342377,526.321289 372.615143,526.405090 
	C370.472504,522.791138 368.861572,519.235718 366.411407,516.407349 
	C365.581543,515.449402 362.511871,515.927551 360.677368,516.467834 
	C358.214142,517.193237 356.944366,523.078918 358.627777,525.876770 
	C355.895752,525.876770 353.365204,525.876770 352.080322,525.876770 
	C355.856201,517.239990 359.758026,508.315002 364.095398,498.393829 
	C365.326691,500.520111 366.297485,501.907623 366.979034,503.425049 
	C369.490875,509.017731 371.734924,514.738464 374.447540,520.229248 
	C375.468262,522.295410 377.491760,523.866272 378.841766,525.888184 
M366.175140,512.791504 
	C365.468536,510.846924 364.761932,508.902344 363.719086,506.032379 
	C362.564972,509.227539 361.775482,511.413269 360.789795,514.142151 
	C363.012634,513.930054 364.591858,513.779419 366.175140,512.791504 
z"/>
<path fill="#942437" opacity="1.000000" stroke="none" 
	d="
M399.114594,491.025360 
	C399.052185,491.631897 398.989777,492.238403 398.730255,493.520721 
	C396.091797,495.852264 393.650452,497.507996 391.209106,499.163757 
	C379.158722,501.006256 373.597931,492.169617 367.554199,484.456573 
	C366.445831,483.042145 366.033020,479.803711 366.893829,478.354523 
	C370.024567,473.084137 372.000092,466.924255 377.894867,463.035919 
	C378.691101,462.803192 378.899567,462.644897 379.057648,462.420288 
	C379.491730,462.306213 379.925842,462.192200 380.902222,462.177124 
	C381.716949,462.453949 381.908569,462.695862 381.842438,463.311462 
	C380.399780,464.373993 379.189331,465.631134 377.857025,465.777405 
	C374.857300,466.106628 374.283600,467.669952 373.875336,470.372253 
	C373.056641,475.791168 373.882874,480.488007 375.863831,485.764130 
	C377.645782,490.510223 380.080170,493.722565 384.001953,496.105865 
	C388.801331,499.022552 393.930695,497.084595 395.778900,491.812500 
	C397.023651,488.261719 397.950836,484.599640 399.263733,480.994537 
	C399.507416,481.001740 399.994965,480.994812 399.997498,480.997406 
	C400.000000,481.000000 400.005615,481.005127 399.980225,481.435455 
	C399.986481,483.593048 400.018127,485.320282 400.049774,487.047546 
	C400.038391,487.481995 400.026978,487.916412 399.721069,488.850189 
	C399.322571,489.908142 399.218567,490.466736 399.114594,491.025360 
z"/>
<path fill="#EAEAEA" opacity="1.000000" stroke="none" 
	d="
M314.417114,325.639221 
	C323.518646,327.627533 326.848419,329.720001 328.980743,334.533325 
	C310.825012,326.431915 292.619720,326.262482 274.421753,334.706635 
	C274.148682,334.297729 273.875610,333.888794 273.602539,333.479889 
	C277.032990,331.319733 280.213989,328.452698 283.942413,327.136810 
	C293.713348,323.688171 303.875366,324.073364 314.417114,325.639221 
z"/>
<path fill="#E4E4E4" opacity="1.000000" stroke="none" 
	d="
M326.755554,501.918701 
	C322.659698,503.588562 322.527008,509.028046 326.069244,512.112000 
	C323.186829,514.649902 322.693726,520.514038 325.026031,526.148804 
	C322.395142,526.148804 319.871399,526.148804 317.257141,526.148804 
	C320.027191,522.241638 319.634735,502.667847 316.502960,499.702026 
	C322.376312,499.702026 327.934692,499.702026 334.027252,499.702026 
	C333.772736,501.258423 333.522919,502.786102 333.327484,503.981140 
	C331.017792,503.192993 329.105865,502.540588 326.755554,501.918701 
z"/>
<path fill="#EAEAEA" opacity="1.000000" stroke="none" 
	d="
M338.940460,507.333618 
	C338.572571,504.720825 338.204529,502.565765 337.800140,500.197815 
	C339.470398,500.197815 342.175110,500.197815 344.838867,500.197815 
	C341.952057,504.544067 342.658478,523.388245 346.388947,526.320618 
	C343.020691,526.320618 340.164307,526.320618 337.313110,526.320618 
	C340.516998,520.508179 338.279785,514.021667 338.940460,507.333618 
z"/>
<path fill="#E4E4E4" opacity="1.000000" stroke="none" 
	d="
M391.167969,499.438843 
	C393.650452,497.507996 396.091797,495.852264 398.726868,493.978271 
	C401.726135,504.368164 404.531677,514.976257 407.337219,525.584412 
	C406.916534,525.872070 406.495880,526.159790 406.075195,526.447449 
	C405.312317,525.525085 404.198853,524.719055 403.847382,523.660095 
	C402.335480,519.104736 400.834839,514.525146 399.735687,509.858856 
	C398.567657,504.900269 395.342682,501.950684 391.167969,499.438843 
z"/>
<path fill="#942437" opacity="1.000000" stroke="none" 
	d="
M391.015259,460.307770 
	C391.732330,460.220734 393.016113,459.907379 393.084778,460.079285 
	C395.749725,466.752472 398.303741,473.469910 400.587189,480.562744 
	C400.302032,480.943939 400.005615,481.005127 400.005615,481.005127 
	C400.005615,481.005127 400.000000,481.000000 400.019531,480.604401 
	C399.188049,476.111084 398.652405,471.825562 393.979919,470.006195 
	C393.993164,470.001099 393.980469,470.030121 394.010010,469.660309 
	C393.775574,466.045715 388.686523,464.425476 391.015259,460.307770 
z"/>
<path fill="#720814" opacity="1.000000" stroke="none" 
	d="
M390.875122,460.061951 
	C388.686523,464.425476 393.775574,466.045715 393.705627,469.513824 
	C389.587555,467.492035 385.803436,465.246918 382.019348,463.001801 
	C381.908569,462.695862 381.716949,462.453949 381.239441,462.162415 
	C384.267914,461.304535 387.501465,460.560333 390.875122,460.061951 
z"/>
<path fill="#720814" opacity="1.000000" stroke="none" 
	d="
M399.980225,481.435455 
	C400.005615,481.005127 400.302032,480.943939 400.449585,480.957336 
	C400.575806,482.830566 400.554474,484.690399 400.291443,486.798889 
	C400.018127,485.320282 399.986481,483.593048 399.980225,481.435455 
z"/>
<path fill="#720814" opacity="1.000000" stroke="none" 
	d="
M399.325256,490.829285 
	C399.218567,490.466736 399.322571,489.908142 399.655457,489.169739 
	C399.768219,489.537689 399.652069,490.085449 399.325256,490.829285 
z"/>
<path fill="#720814" opacity="1.000000" stroke="none" 
	d="
M378.844910,462.391846 
	C378.899567,462.644897 378.691101,462.803192 378.235107,462.924591 
	C378.147339,462.667877 378.345428,462.471008 378.844910,462.391846 
z"/>
<path fill="#050505" opacity="1.000000" stroke="none" 
	d="
M382.918884,209.763245 
	C382.822937,209.961716 382.650421,210.004807 382.250305,209.908722 
	C382.295929,209.715652 382.569153,209.661758 382.918884,209.763245 
z"/>
<path fill="#050505" opacity="1.000000" stroke="none" 
	d="
M296.464478,514.037903 
	C295.537720,513.508972 294.517273,512.849548 294.612671,512.472412 
	C295.055328,510.723480 295.807495,509.052887 296.933868,506.069489 
	C298.083191,509.230225 298.865295,511.381073 299.750793,513.816284 
	C298.500305,513.912781 297.692566,513.975098 296.464478,514.037903 
z"/>
<path fill="#050505" opacity="1.000000" stroke="none" 
	d="
M366.173126,513.210144 
	C364.591858,513.779419 363.012634,513.930054 360.789795,514.142151 
	C361.775482,511.413269 362.564972,509.227539 363.719086,506.032379 
	C364.761932,508.902344 365.468536,510.846924 366.173126,513.210144 
z"/>
<path fill="#C1213A" opacity="1.000000" stroke="none" 
	d="
M381.842438,463.311462 
	C385.803436,465.246918 389.587555,467.492035 393.676086,469.883636 
	C393.980469,470.030121 393.993164,470.001099 394.031952,470.349121 
	C395.114655,472.753906 396.158569,474.810669 397.167542,477.179443 
	C397.472290,477.958130 397.811920,478.424866 398.354950,479.101807 
	C398.712250,479.870483 398.866180,480.428925 399.020081,480.987335 
	C397.950836,484.599640 397.023651,488.261719 395.778900,491.812500 
	C393.930695,497.084595 388.801331,499.022552 384.001953,496.105865 
	C380.080170,493.722565 377.645782,490.510223 375.863831,485.764130 
	C373.882874,480.488007 373.056641,475.791168 373.875336,470.372253 
	C374.283600,467.669952 374.857300,466.106628 377.857025,465.777405 
	C379.189331,465.631134 380.399780,464.373993 381.842438,463.311462 
z"/>
<path fill="#720814" opacity="1.000000" stroke="none" 
	d="
M399.263733,480.994537 
	C398.866180,480.428925 398.712250,479.870483 398.309021,478.816681 
	C397.773926,477.836670 397.488190,477.352081 397.202454,476.867462 
	C396.158569,474.810669 395.114655,472.753906 394.018738,470.354187 
	C398.652405,471.825562 399.188049,476.111084 400.017029,480.601807 
	C399.994965,480.994812 399.507416,481.001740 399.263733,480.994537 
z"/>
<path fill="#942437" opacity="1.000000" stroke="none" 
	d="
M397.167542,477.179443 
	C397.488190,477.352081 397.773926,477.836670 398.105621,478.606445 
	C397.811920,478.424866 397.472290,477.958130 397.167542,477.179443 
z"/>
</svg>