<svg width="231" height="41" viewBox="0 0 231 41" fill="none" xmlns="http://www.w3.org/2000/svg">
<path d="M10.782 40H0.748698L3.8487 0.933334H19.482L22.4154 14.0333L23.7487 20.6667L25.0154 14.0667L27.6154 0.933334H41.5487L44.4154 40H34.0487L32.3487 17.0333L31.9487 8.56667L26.8487 36.1H18.1487L12.0154 8.56667L11.8154 17.0333L10.782 40ZM66.5016 40L65.0016 33.7667H55.5349L54.2682 40H44.4682L54.6349 3.63333L53.8349 0.933334H67.6016L78.7349 40H66.5016ZM59.8349 12.4L56.9016 26.9667H63.3682L59.8349 12.4ZM91.0831 40H80.0497V0.933334H102.05V9.43333L91.0831 8.76667V17.8333H100.083V26.1L91.0831 25.4333V40ZM104.857 40V0.933334H116.223V40H104.857ZM139.939 40L138.439 33.7667H128.972L127.706 40H117.906L128.072 3.63333L127.272 0.933334H141.039L152.172 40H139.939ZM133.272 12.4L130.339 26.9667H136.806L133.272 12.4ZM157.254 40.6333L151.787 35.1333V33.9667L157.254 28.5H158.521L164.221 33.9667V35.1333L158.521 40.6333H157.254Z" fill="#718173" fill-opacity="0.88"/>
<path d="M10.782 40H0.748698L3.8487 0.933334H19.482L22.4154 14.0333L23.7487 20.6667L25.0154 14.0667L27.6154 0.933334H41.5487L44.4154 40H34.0487L32.3487 17.0333L31.9487 8.56667L26.8487 36.1H18.1487L12.0154 8.56667L11.8154 17.0333L10.782 40ZM66.5016 40L65.0016 33.7667H55.5349L54.2682 40H44.4682L54.6349 3.63333L53.8349 0.933334H67.6016L78.7349 40H66.5016ZM59.8349 12.4L56.9016 26.9667H63.3682L59.8349 12.4ZM91.0831 40H80.0497V0.933334H102.05V9.43333L91.0831 8.76667V17.8333H100.083V26.1L91.0831 25.4333V40ZM104.857 40V0.933334H116.223V40H104.857ZM139.939 40L138.439 33.7667H128.972L127.706 40H117.906L128.072 3.63333L127.272 0.933334H141.039L152.172 40H139.939ZM133.272 12.4L130.339 26.9667H136.806L133.272 12.4ZM157.254 40.6333L151.787 35.1333V33.9667L157.254 28.5H158.521L164.221 33.9667V35.1333L158.521 40.6333H157.254Z" fill="#575856" fill-opacity="0.2"/>
<path d="M190.959 36.4667C188.137 39.2889 184.781 40.7 180.892 40.7C178.137 40.7 175.748 40.2222 173.726 39.2667C171.726 38.3111 170.137 36.9333 168.959 35.1333C167.781 33.3333 166.915 31.2778 166.359 28.9667C165.826 26.6556 165.559 24.0222 165.559 21.0667C165.559 18.8667 165.67 16.8889 165.892 15.1333C166.137 13.3778 166.526 11.7 167.059 10.1C167.592 8.5 168.326 7.12222 169.259 5.96667C170.192 4.78889 171.337 3.76667 172.692 2.9C174.048 2.03333 175.692 1.38889 177.626 0.966668C179.559 0.522224 181.759 0.300002 184.226 0.300002C185.337 0.300002 186.392 0.366668 187.392 0.500002C188.415 0.633334 189.281 0.8 189.992 1C190.704 1.17778 191.37 1.41111 191.992 1.7C192.637 1.96667 193.137 2.21111 193.492 2.43334C193.87 2.63333 194.215 2.85556 194.526 3.1C194.837 3.34445 195.026 3.51111 195.092 3.6C195.181 3.68889 195.248 3.75556 195.292 3.8L194.792 11.4667H188.726L186.826 7.03333C186.337 6.76667 185.548 6.63333 184.459 6.63333C183.57 6.63333 182.837 6.71111 182.259 6.86667C181.681 7.02222 181.104 7.35556 180.526 7.86667C179.97 8.35556 179.526 9.07778 179.192 10.0333C178.881 10.9667 178.626 12.2444 178.426 13.8667C178.226 15.4667 178.126 17.4222 178.126 19.7333C178.126 24.5556 178.381 28.1333 178.892 30.4667C179.426 32.8 180.481 33.9667 182.059 33.9667C182.837 33.9667 183.492 33.9 184.026 33.7667C184.559 33.6111 185.059 33.3444 185.526 32.9667C185.992 32.5667 186.337 31.9889 186.559 31.2333C186.781 30.4556 186.892 29.4667 186.892 28.2667V24.8667L182.492 23.8667V17.0667H197.326L197.292 40H191.359L190.959 36.4667ZM224.455 36.4667C221.633 39.2889 218.277 40.7 214.389 40.7C211.633 40.7 209.244 40.2222 207.222 39.2667C205.222 38.3111 203.633 36.9333 202.455 35.1333C201.277 33.3333 200.411 31.2778 199.855 28.9667C199.322 26.6556 199.055 24.0222 199.055 21.0667C199.055 18.8667 199.166 16.8889 199.389 15.1333C199.633 13.3778 200.022 11.7 200.555 10.1C201.089 8.5 201.822 7.12222 202.755 5.96667C203.689 4.78889 204.833 3.76667 206.189 2.9C207.544 2.03333 209.189 1.38889 211.122 0.966668C213.055 0.522224 215.255 0.300002 217.722 0.300002C218.833 0.300002 219.889 0.366668 220.889 0.500002C221.911 0.633334 222.777 0.8 223.489 1C224.2 1.17778 224.866 1.41111 225.489 1.7C226.133 1.96667 226.633 2.21111 226.989 2.43334C227.366 2.63333 227.711 2.85556 228.022 3.1C228.333 3.34445 228.522 3.51111 228.589 3.6C228.677 3.68889 228.744 3.75556 228.789 3.8L228.289 11.4667H222.222L220.322 7.03333C219.833 6.76667 219.044 6.63333 217.955 6.63333C217.066 6.63333 216.333 6.71111 215.755 6.86667C215.177 7.02222 214.6 7.35556 214.022 7.86667C213.466 8.35556 213.022 9.07778 212.689 10.0333C212.377 10.9667 212.122 12.2444 211.922 13.8667C211.722 15.4667 211.622 17.4222 211.622 19.7333C211.622 24.5556 211.877 28.1333 212.389 30.4667C212.922 32.8 213.977 33.9667 215.555 33.9667C216.333 33.9667 216.989 33.9 217.522 33.7667C218.055 33.6111 218.555 33.3444 219.022 32.9667C219.489 32.5667 219.833 31.9889 220.055 31.2333C220.277 30.4556 220.389 29.4667 220.389 28.2667V24.8667L215.989 23.8667V17.0667H230.822L230.789 40H224.855L224.455 36.4667Z" fill="#A62A51"/>
</svg>
